<svg width="84" height="50" viewBox="0 0 84 50" fill="none" xmlns="http://www.w3.org/2000/svg">
<path d="M48.5977 10.5625H55.4531V29.1367C55.4531 31.3503 54.9909 33.2253 54.0664 34.7617C53.1419 36.2852 51.8464 37.4375 50.1797 38.2188C48.513 39 46.5534 39.3906 44.3008 39.3906C42.0742 39.3906 40.1146 39 38.4219 38.2188C36.7422 37.4375 35.4271 36.2852 34.4766 34.7617C33.5391 33.2253 33.0703 31.3503 33.0703 29.1367V10.5625H39.9453V29.1367C39.9453 30.3086 40.1146 31.2656 40.4531 32.0078C40.7917 32.737 41.2865 33.2708 41.9375 33.6094C42.5885 33.9479 43.3763 34.1172 44.3008 34.1172C45.2383 34.1172 46.026 33.9479 46.6641 33.6094C47.3021 33.2708 47.7839 32.737 48.1094 32.0078C48.4349 31.2656 48.5977 30.3086 48.5977 29.1367V10.5625ZM71.1172 29.3516H64.0469V24.0586H71.1172C72.0807 24.0586 72.862 23.8958 73.4609 23.5703C74.0599 23.2448 74.4961 22.7956 74.7695 22.2227C75.056 21.6367 75.1992 20.9792 75.1992 20.25C75.1992 19.4688 75.056 18.7461 74.7695 18.082C74.4961 17.418 74.0599 16.8841 73.4609 16.4805C72.862 16.0638 72.0807 15.8555 71.1172 15.8555H66.625V39H59.7695V10.5625H71.1172C73.3958 10.5625 75.3555 10.9792 76.9961 11.8125C78.6497 12.6458 79.9193 13.7917 80.8047 15.25C81.6901 16.6953 82.1328 18.349 82.1328 20.2109C82.1328 22.0469 81.6901 23.6484 80.8047 25.0156C79.9193 26.3828 78.6497 27.4505 76.9961 28.2188C75.3555 28.974 73.3958 29.3516 71.1172 29.3516Z" fill="#292929"/>
<circle cx="14.5" cy="24.5" r="14.5" fill="#A6E7F3"/>
<path d="M15.6466 13.6868C15.256 13.2963 14.6229 13.2963 14.2323 13.6868L7.86839 20.0508C7.47786 20.4413 7.47786 21.0745 7.86839 21.465C8.25891 21.8555 8.89207 21.8555 9.2826 21.465L14.9395 15.8082L20.5963 21.465C20.9868 21.8555 21.62 21.8555 22.0105 21.465C22.401 21.0745 22.401 20.4413 22.0105 20.0508L15.6466 13.6868ZM15.9395 35.4849L15.9395 14.394H13.9395L13.9395 35.4849H15.9395Z" fill="white"/>
</svg>
