<svg width="34" height="33" viewBox="0 0 34 33" fill="none" xmlns="http://www.w3.org/2000/svg">
<path fill-rule="evenodd" clip-rule="evenodd" d="M16.5414 0C8.51464 0 1.37977 5.8244 0.19063 13.6873C-0.998514 21.5503 3.46078 29.1219 11.1902 31.7429C12.0821 32.0341 12.3794 31.4517 12.3794 30.8693C12.3794 30.578 12.3794 29.4132 12.3794 28.2483C7.92007 29.122 6.73092 26.2097 6.73092 26.2097C6.43364 25.3361 5.83906 24.4624 4.94721 23.88C3.46078 23.0063 4.94721 23.0063 4.94721 23.0063C6.13635 23.0063 7.02821 23.88 7.62278 24.7537C8.21735 25.6273 8.81192 26.2097 9.70378 26.501C10.5956 26.7922 11.4875 26.501 12.3794 26.2097C12.3794 25.3361 12.9739 24.7537 13.5685 24.1712C10.0011 23.88 6.13635 22.4239 6.13635 16.0171C6.13635 14.2698 6.73092 12.8137 7.92007 11.6488C7.32549 10.1927 7.32549 8.73658 8.21735 7.28049C8.21735 7.28049 9.70378 6.98926 12.6766 9.0278C15.3522 8.15414 18.3251 8.15414 21.0006 9.0278C24.2708 6.98926 25.4599 7.28049 25.4599 7.28049C26.0545 8.73658 26.0545 10.1927 25.7572 11.6488C26.9464 12.8137 27.5409 14.2698 27.5409 16.0171C27.5409 22.1327 23.6762 23.5888 20.1088 23.88C21.0006 24.7537 21.2979 25.6273 21.2979 26.7922C21.2979 28.8307 21.2979 30.5781 21.2979 31.1605C21.2979 31.4517 21.5952 32.0341 22.4871 32.0341C30.2165 29.4132 34.9731 21.8415 33.4867 13.9785C32.0002 6.11562 24.5681 0 16.5414 0Z" fill="#A6E7F3"/>
</svg>
