<svg width="31" height="31" viewBox="0 0 31 31" fill="none" xmlns="http://www.w3.org/2000/svg">
<path d="M26.4585 26.5288H21.7019V19.375C21.7019 17.5865 21.7019 15.5 19.3236 15.5C16.9453 15.5 16.648 17.2885 16.648 19.375V26.8269H11.8914V11.9231H16.3507V14.0096C17.2426 12.5192 19.0263 11.625 20.81 11.625C25.5666 11.625 26.4585 14.6058 26.4585 18.7789V26.5288ZM6.83758 9.53847C5.05386 9.53847 3.86472 8.34616 3.86472 6.85578C3.86472 5.36539 5.05386 4.17308 6.54029 4.17308C8.02672 4.17308 9.21587 5.36539 9.21587 6.85578C9.51315 8.34616 8.32401 9.53847 6.83758 9.53847ZM8.91858 26.5288H4.45929V11.625H9.21587L8.91858 26.5288ZM28.8367 0H2.081C1.48643 0 0.891858 0.298091 0.594572 0.596167C0.297286 0.894244 0 1.4904 0 2.08655V28.9135C0 29.5096 0.297286 30.1058 0.594572 30.4039C0.891858 30.7019 1.48643 31 2.081 31H28.8367C29.4313 31 30.0259 30.7019 30.3232 30.4039C30.6205 30.1058 30.9177 29.5096 30.9177 28.9135V2.08655C30.9177 1.4904 30.6205 0.894244 30.3232 0.596167C30.0259 0.298091 29.4313 0 28.8367 0Z" fill="#A6E7F3"/>
</svg>
