<svg width="35" height="28" viewBox="0 0 35 28" fill="none" xmlns="http://www.w3.org/2000/svg">
    <path d="M17.5399 18.9295C16.9453 18.9295 16.0534 18.6382 15.4589 18.0558L0 3.20361V24.1714C0 25.6275 1.18914 26.7924 2.37829 26.7924L11.2969 18.0558C11.5942 17.7646 12.1887 17.7646 12.486 18.0558C12.7833 18.347 12.7833 18.9295 12.486 19.2207L5.05386 26.7924H30.0259L22.2965 19.5119C21.9992 19.2207 21.9992 18.6382 22.2965 18.347C22.5937 18.0558 23.1883 18.0558 23.4856 18.347L32.4042 27.0836C33.8906 27.0836 34.7825 25.9187 34.7825 24.4626V3.20361L19.3236 18.347C19.0263 18.6382 18.1344 18.9295 17.5399 18.9295Z"
          fill="#A6E7F3"/>
    <path d="M18.1344 16.8907L34.4851 1.16488C33.8905 0.291219 32.9987 0 32.1068 0H2.67548C1.78363 0 1.18905 0.291219 0.594482 1.16488L16.9452 16.8907C17.2425 17.1819 17.8371 17.1819 18.1344 16.8907Z"
          fill="#A6E7F3"/>
</svg>
